inDegrees=no
num_controls=7
num_derivatives=13
num_iterations=109
num_multipliers=7
num_parameters=0
num_slacks=7
num_states=26
objective=0.431118
objective_accelerations=0.050212
objective_balance=0.006760
objective_effort=0.031102
objective_height=0.341883
objective_ligament=0.001161
solver_duration=1396.081607
status=Solve_Succeeded
success=true
DataType=double
version=3
OpenSimVersion=4.5
endheader
time	/jointset/ground_pelvis/pelvis_tilt/value	/jointset/ground_pelvis/pelvis_tx/value	/jointset/ground_pelvis/pelvis_ty/value	/jointset/hip_l/hip_flexion_l/value	/jointset/hip_l/hip_adduction_l/value	/jointset/hip_l/hip_rotation_l/value	/jointset/back/lumbar_extension/value	/jointset/patellofemoral_l/patellar_flexion_l/value	/jointset/knee_l/knee_flexion_l/value	/jointset/knee_l/knee_adduction_l/value	/jointset/knee_l/knee_rotation_l/value	/jointset/ankle_l/ankle_angle_l/value	/jointset/subtalar_l/subtalar_angle_l/value	/jointset/ground_pelvis/pelvis_tilt/speed	/jointset/ground_pelvis/pelvis_tx/speed	/jointset/ground_pelvis/pelvis_ty/speed	/jointset/hip_l/hip_flexion_l/speed	/jointset/hip_l/hip_adduction_l/speed	/jointset/hip_l/hip_rotation_l/speed	/jointset/back/lumbar_extension/speed	/jointset/patellofemoral_l/patellar_flexion_l/speed	/jointset/knee_l/knee_flexion_l/speed	/jointset/knee_l/knee_adduction_l/speed	/jointset/knee_l/knee_rotation_l/speed	/jointset/ankle_l/ankle_angle_l/speed	/jointset/subtalar_l/subtalar_angle_l/speed	/forceset/tau_hip_flexion_l	/forceset/tau_hip_adduction_l	/forceset/tau_hip_rotation_l	/forceset/tau_knee_flexion_l	/forceset/tau_ankle_angle_l	/forceset/tau_subtalar_angle_l	/forceset/tau_lumbar_extension	lambda_cid13_p0	lambda_cid13_p1	lambda_cid13_p2	lambda_cid13_p3	lambda_cid13_p4	lambda_cid13_p5	lambda_cid14_p0	/jointset/ground_pelvis/pelvis_tilt/accel	/jointset/ground_pelvis/pelvis_tx/accel	/jointset/ground_pelvis/pelvis_ty/accel	/jointset/hip_l/hip_flexion_l/accel	/jointset/hip_l/hip_adduction_l/accel	/jointset/hip_l/hip_rotation_l/accel	/jointset/back/lumbar_extension/accel	/jointset/patellofemoral_l/patellar_flexion_l/accel	/jointset/knee_l/knee_flexion_l/accel	/jointset/knee_l/knee_adduction_l/accel	/jointset/knee_l/knee_rotation_l/accel	/jointset/ankle_l/ankle_angle_l/accel	/jointset/subtalar_l/subtalar_angle_l/accel	gamma_cid13_p0	gamma_cid13_p1	gamma_cid13_p2	gamma_cid13_p3	gamma_cid13_p4	gamma_cid13_p5	gamma_cid14_p0
1	-0.4451619899425957	-0.05268952464122789	0.5907061065903527	1.778433132295069	-0.2718425374252291	0.2262237148738756	-0.4363200260740406	1.431444504586887	1.431444504588888	-0.1743699936943281	0.1745260127318194	0.3158405872817209	0.05124204695087195	-0.01141392142081738	0.0006869161720484092	-0.003695858220524917	0.01805955977322265	0.000901446247558666	0.003340676969882995	0.0002083409638660268	0.008596034807419713	0.008596034807420005	-4.645499449958117e-05	-2.964325432862184e-05	0.002440299719190035	0.001827188147251632	-0.3301729883532866	0.008699685009056088	-0.01219123498189436	-0.3721302591568015	0.04889630436701665	0.01421381534434886	0.2953649376381395	-30.56965977276043	0.7985016823430988	-2.379050256229783	17.28501597562454	-729.336758541472	-53.20884688495102	-0.03920152360774513	1.041247994528754	-0.03445939476945007	1.811925742152019	-5.677363980713962	-0.6031758822430148	-2.075352954477917	-0.02462056258802207	-5.565416518907953	-5.565416518908185	-0.07682477527483431	0.01722890755645195	-1.231923838312143	-1.108863031779674	3.088908020333853e-10	1.185459327586694e-09	-9.158829962226541e-09	-1.165664819806889e-09	2.186788588133468e-09	-4.459328090251558e-09	1.428958810498499e-09
1.01	-0.4452244366962482	-0.05268436527905675	0.5907596447473336	1.778330417699312	-0.2718628550686181	0.2261512961082982	-0.4363187494112651	1.431252578798727	1.431252578800295	-0.1743710685820301	0.1745257199390045	0.3158037316424376	0.05120613416538898	-0.001074455837879747	0.0003482324739626518	0.01440107670385285	-0.03860022253816484	-0.004962996057752828	-0.01782287317517941	4.42517385355497e-05	-0.0469757650905649	-0.04697576509056433	-0.000167274519641725	-2.694186215104526e-05	-0.009809515567721565	-0.009005289010077853	-0.3300284610836411	0.008704504468265192	-0.01221820450736052	-0.3721165788165986	0.0491502527490782	0.01421265798502041	0.2952677472313661	-30.4755766845802	0.7806091490582807	-2.374002273246139	17.14660404751019	-729.1950822847591	-53.21995305162746	-0.0392109440393511	1.030442210726519	-0.03307996683102094	1.808213613509833	-5.659946790549752	-0.5777883470030701	-2.136628761084535	-0.01271408076459703	-5.552245979102464	-5.552245979102283	0.02047308384280276	-0.007924000410010641	-1.221222668829672	-1.069776835893186	-2.280719973330557e-09	-2.451660127507517e-09	4.624357682681291e-08	7.209082007729932e-09	-8.97301631426025e-09	3.553945170746546e-08	-8.122594818777282e-09
1.02	-0.445183459519961	-0.05268249417576704	0.5909940795027437	1.777661172993606	-0.2719417591235255	0.2258672872979582	-0.4363191958363774	1.430505098160816	1.430505098161949	-0.1743733149399838	0.1745255112090178	0.3156444353912956	0.05106202925269598	0.009270864567066462	2.926439576213723e-05	0.0324834614654082	-0.09524646221749566	-0.01081583605617891	-0.03897733198280758	-0.0001362766171563348	-0.1025149351428996	-0.1025149351428978	-0.0002807490457144096	-1.283068831043185e-05	-0.02204782265259301	-0.01981123729475137	-0.3298839338139801	0.008709323927476972	-0.0122451740328476	-0.3721028984763953	0.04940420113113802	0.01421150062569543	0.2951705568246084	-30.38974044755309	0.7652267658697489	-2.370572604459987	17.05992801710054	-729.1582011094449	-53.17868708784577	-0.03921412691309165	1.04241895893047	-0.03051627079240338	1.809015709587535	-5.674655454302632	-0.60085542086593	-2.073534686991072	-0.02790838866033759	-5.558890549777972	-5.558890549778023	-0.0753557754609403	0.01951086388905541	-1.229622197904116	-1.103557257248478	-4.925815911847469e-09	-6.767480059246476e-09	1.016139147189644e-07	1.538175288711529e-08	-2.015317415293839e-08	7.352971772824598e-08	-1.754784509484059e-08
1.03	-0.445039018951348	-0.05268368927587432	0.591409223782285	1.776425615631946	-0.2720790746474795	0.2253718488048362	-0.4363214009644815	1.429202379773845	1.429202379774942	-0.1743766762608557	0.1745254811079341	0.3153627294249606	0.05081008469574518	0.01961624517537965	-0.0002625570092579782	0.05053888900125634	-0.1518546944461227	-0.01663919472044473	-0.06010315609392487	-0.0002945662078806641	-0.1580244608049837	-0.1580244608049867	-0.0003905106345487416	6.72025787020377e-06	-0.0342998680567376	-0.03056423871985012	-0.3296314045107937	0.008775544005763457	-0.01233242984034219	-0.3718904063834784	0.04971909749565329	0.01428041991617296	0.2950298956670154	-30.26684880858042	0.7024709729087586	-2.347652486420654	16.90270599297254	-728.9320134498403	-53.17530166622847	-0.03924446423956394	1.030448167238414	-0.02765120418084317	1.802824124881266	-5.652359435378414	-0.571888306160885	-2.131045576612081	-0.008261825067032753	-5.546335906022407	-5.546335906023092	0.02135248520021133	-0.00687249272591033	-1.223967289833451	-1.059173517122806	-7.571478025498596e-09	-1.109022550605324e-08	1.569839253774742e-07	2.355236176702971e-08	-3.133353967463986e-08	1.114994887104863e-07	-2.697180656117725e-08
1.04	-0.4447911544655606	-0.0526876298157966	0.5920047259070441	1.774624285482354	-0.272274386201467	0.2246653642099165	-0.4363248835046282	1.427344695663934	1.427344695664994	-0.1743811074304522	0.174525636575768	0.3149583086889514	0.05045100973814694	0.02995564800195819	-0.0005198235672378545	0.06855503050902492	-0.208401019804176	-0.02241504206287047	-0.08118655234264355	-0.000391759030146197	-0.2135080797310194	-0.213508079731027	-0.0004947187915861977	2.428309571142237e-05	-0.04659077658743488	-0.04123731742423811	-0.3293788752075995	0.008841764084053941	-0.01241968564785404	-0.3716779142905609	0.05003399386016857	0.01434933920665627	0.2948892345094302	-30.15227891402587	0.6422321917007415	-2.32634464187791	16.7971544091702	-728.8112400187947	-53.12011329214288	-0.03926860554178847	1.041223402583544	-0.02360530138435884	1.801158503971622	-5.662274080187881	-0.5913531564979053	-2.065049114511346	-0.01568903496851434	-5.553709202568293	-5.553709202568299	-0.07424508910155717	0.01911324222115732	-1.23739482321466	-1.087572713106314	-1.019377733826636e-08	-1.538964964311547e-08	2.110102633963309e-07	3.10287869076734e-08	-4.199371260515413e-08	1.490543446492302e-07	-3.634730881727503e-08
1.05	-0.4444398945992044	-0.05269392296589491	0.5927801325135734	1.7722578781018	-0.2725271556288725	0.2237483639237045	-0.4363288767032784	1.424932408733865	1.424932408734406	-0.174386574265976	0.1745259557033599	0.314430775681165	0.04998571495284804	0.04029818711509794	-0.0007283950314707592	0.08651380995689686	-0.264862655483749	-0.0281244840073116	-0.1021990720467454	-0.0003808440728266326	-0.2689350699286169	-0.2689350699286244	-0.0005966787689368728	3.933813748910101e-05	-0.0589232343248583	-0.05179705164638158	-0.3290383663622997	0.008955260157342026	-0.01256469388457777	-0.3712062646429003	0.05041582575201563	0.01449354650680268	0.2947282043158705	-29.99421889995929	0.5300037597904135	-2.283409683828647	16.5852693255467	-728.4550431779852	-53.10377291377445	-0.03931664219249401	1.031050256525779	-0.0179135838087146	1.791354904167268	-5.635437761423767	-0.5586250769827467	-2.117223887393481	0.0133872553186151	-5.535049236280031	-5.535049236279998	0.02210402747858745	-0.007389973702410325	-1.232277535329772	-1.036514512023246	-1.281534656350652e-08	-1.968834498924819e-08	2.649946116451985e-07	3.848351880646489e-08	-5.263762951719381e-08	1.865962344928647e-07	-4.572129672305285e-08
